<svg width="38" height="56" viewBox="0 0 38 56" fill="none" xmlns="http://www.w3.org/2000/svg">
<g clip-path="url(#clip0_1000_381)">
<path d="M0.674463 42.5164C0.422278 40.2676 0.558799 38.0292 0.864076 35.7965C0.87737 35.7521 0.89719 35.7099 0.922867 35.6713C0.944312 35.6638 0.962521 35.6491 0.974575 35.6299C0.98663 35.6106 0.99179 35.5878 0.989204 35.5652C0.996788 35.2807 1.13521 35.0911 1.41773 35.0191C1.72585 34.9461 1.79697 35.2134 1.92685 35.3983C2.07001 35.0598 2.03022 34.71 2.04823 34.3668C2.07478 33.8786 2.20086 33.7563 2.67678 33.7724C2.73818 33.7784 2.80013 33.7714 2.85862 33.7518C2.91711 33.7321 2.97083 33.7004 3.0162 33.6586C3.47791 33.25 4.35107 33.1523 4.90663 33.4339C4.99101 33.4775 5.06686 33.5714 5.15124 33.5714C5.78075 33.5771 6.0348 33.9999 6.27466 34.4929C6.38084 34.711 6.3951 34.8522 6.26332 35.0466C5.81299 35.7102 5.91442 35.988 6.61125 36.3644C7.43511 36.8109 8.30355 37.0508 9.22981 36.9778C9.85079 36.9294 10.4841 36.8242 10.9259 36.2923C11.2292 36.0468 11.5374 35.9984 11.8739 36.244C12.183 36.4706 12.5233 36.4526 12.8637 36.3246C13.0393 36.25 13.2297 36.2167 13.4202 36.2272C13.6107 36.2377 13.7962 36.2918 13.9625 36.3852C14.3806 36.6393 14.7551 36.6033 15.158 36.4118C15.7487 36.608 16.2957 36.9209 16.9338 37.0024C17.7657 37.1142 18.6106 36.9332 19.3238 36.4905C19.4983 36.3852 19.6613 36.2582 19.8604 36.1966C20.5336 36.007 20.5696 36.0202 20.6568 36.7142C20.6881 36.9645 20.8464 36.9778 21.0208 36.9816C21.5574 36.993 22.095 36.9882 22.6325 36.9816C22.9795 36.9816 23.2829 37.0574 23.5256 37.3305C23.7465 37.5798 24.0518 37.6082 24.3561 37.5665C24.9944 37.4887 25.642 37.5534 26.2523 37.7561C26.7491 37.9059 27.3359 38.0538 27.8166 37.5969C27.8647 37.5546 27.921 37.5228 27.9821 37.5036C28.0431 37.4843 28.1075 37.478 28.1711 37.485C29.0566 37.5542 29.9213 37.7694 30.803 37.8642C30.9537 37.8803 31.0495 37.9827 31.1329 38.1088C31.4173 38.5421 31.9539 38.598 32.2829 38.1733C32.5806 37.7893 32.9257 37.6993 33.3627 37.7836C33.5025 37.8106 33.6458 37.8135 33.7865 37.7922C34.2672 37.7182 34.6293 37.8822 34.8294 38.3364C34.9346 38.5772 35.2247 38.653 35.3034 38.9052C35.3935 39.7641 35.3594 40.624 35.3262 41.482C35.3015 41.8242 35.3015 42.1676 35.3262 42.5097C35.1366 44.9747 34.5554 47.324 33.266 49.4628C33.1864 49.5946 33.1418 49.7548 32.9882 49.8316C33.0224 49.3974 32.7797 49.0855 32.536 48.765C32.3151 48.473 32.1568 48.1488 32.1881 47.7611C32.1995 47.6132 32.1587 47.4672 31.9663 47.4634C31.7738 47.4596 31.6117 47.5136 31.5984 47.7383C31.5785 48.0881 31.5235 48.4124 31.1035 48.4882C30.6674 48.5679 30.219 48.5043 30.0388 48.0806C29.6805 47.2377 28.8007 47.0055 28.2375 46.4129C27.6004 45.8441 27.5985 45.7132 28.1977 45.0932C29.251 44.0048 30.3915 43.0008 31.3462 41.8176C31.4657 41.6698 31.6164 41.5408 31.588 41.3265C31.5784 41.2312 31.5436 41.1402 31.4871 41.0629C31.4306 40.9855 31.3545 40.9247 31.2666 40.8866C31.0476 40.7918 30.858 40.8867 30.7063 41.0355C30.1507 41.5721 29.5828 42.0983 29.0804 42.6889C28.4859 43.3867 27.8005 43.9972 27.1605 44.6514C26.9472 44.8695 26.751 44.8325 26.55 44.6315C25.8266 43.9053 25.0843 43.1971 24.4054 42.4263C24.2871 42.2784 24.1526 42.1442 24.0044 42.0262C23.7627 41.8508 23.5304 41.8745 23.3199 42.0755C23.1094 42.2765 23.1521 42.5002 23.3067 42.7126C23.7162 43.2758 24.2547 43.7261 24.7013 44.2542C24.9662 44.5879 25.2492 44.9069 25.5488 45.2098C25.6173 45.2643 25.6729 45.3333 25.7116 45.4118C25.7503 45.4903 25.7711 45.5764 25.7725 45.6639C25.574 46.109 25.2778 46.5036 24.906 46.8187C24.855 46.869 24.7912 46.9044 24.7215 46.9211C24.6519 46.9378 24.579 46.9352 24.5107 46.9135C24.2206 46.8187 23.9039 46.8765 23.6242 46.7931C22.771 46.539 21.9026 46.6547 21.0398 46.6329C20.4416 46.6167 19.8415 46.6329 19.2385 46.6329C18.8327 46.6329 18.4905 46.5257 18.2961 46.1332C18.2675 46.0591 18.2141 45.9971 18.1449 45.9579C18.0758 45.9187 17.9952 45.9046 17.9169 45.918C16.7186 46.0782 15.5278 45.791 14.3294 45.8687C13.8876 45.8972 13.4581 45.901 13.0334 46.0697C12.5034 46.2792 11.3506 45.9161 10.9866 45.4848C10.908 45.4059 10.8581 45.303 10.8449 45.1925C10.8316 45.082 10.8558 44.9703 10.9135 44.8752C10.9799 44.7529 11.1032 44.658 11.1032 44.5026C11.3525 43.9764 11.8369 43.6493 12.1963 43.2151C12.347 43.0331 12.53 42.8757 12.6153 42.6463C12.6628 42.5359 12.6708 42.4126 12.638 42.2971C12.6052 42.1816 12.5335 42.0809 12.4352 42.012C12.2181 41.8366 12.0133 41.9172 11.8417 42.0793C11.3838 42.5126 10.9173 42.9392 10.5144 43.4303C10.1551 43.873 9.72942 44.2494 9.33313 44.6552C9.09801 44.896 8.86859 44.9007 8.65148 44.6362C7.91863 43.7441 7.04735 42.9866 6.24623 42.1608C5.98172 41.8878 5.77219 41.5674 5.4944 41.3076C5.3665 41.1901 5.22853 41.0842 5.08203 40.9909C4.9 40.8762 4.71228 40.8013 4.5056 40.9236C4.27522 41.0563 4.26953 41.2772 4.28659 41.5048C4.30118 41.6145 4.32432 41.7229 4.3558 41.829C4.40226 42.1134 4.48191 42.4206 4.13207 42.5619C3.7974 42.6965 3.48359 42.6178 3.22192 42.3599C3.20012 42.3381 3.18683 42.3012 3.16123 42.2888C2.60093 42.0281 2.06434 41.7674 1.58651 41.3284C1.24236 41.0137 0.912436 41.2934 0.873566 41.8025C0.857449 42.0537 1.00439 42.359 0.674463 42.5164Z" fill="#FED451"/>
<path d="M11.1746 44.4189C11.2107 44.4694 11.2292 44.5302 11.2275 44.5921C11.2258 44.6541 11.2039 44.7138 11.1651 44.7621C10.858 45.2049 10.9272 45.4846 11.4315 45.6704C12.0649 45.9027 12.702 46.2838 13.396 45.7861C13.505 45.7083 13.7022 45.7481 13.8586 45.7434C15.0086 45.7083 16.1558 45.7728 17.3029 45.8382C17.4441 45.8567 17.5875 45.8487 17.7258 45.8145C18.0879 45.6893 18.341 45.6856 18.4538 46.1511C18.5325 46.48 18.853 46.5056 19.1516 46.5056C20.2723 46.5056 21.3929 46.4943 22.5135 46.5056C23.198 46.5142 23.8635 46.6772 24.529 46.8204C24.6115 46.8375 24.6808 46.864 24.7452 46.8033C25.1301 46.4421 25.5112 46.0781 25.6762 45.5528C26.0431 45.6998 26.0867 45.8126 25.8042 46.097C25.2467 46.6564 24.7461 47.2669 24.1877 47.8253C23.5411 48.4729 22.8766 49.1024 22.2613 49.7821C21.9892 50.0827 21.9484 50.3984 22.1551 50.6202C22.3447 50.825 22.6832 50.7748 22.9913 50.4875C24.0285 49.5157 24.9197 48.4018 25.9559 47.43C26.1161 47.2783 26.264 47.1133 26.4299 46.9635C26.793 46.6289 26.9769 46.6156 27.3059 46.9825C27.6956 47.4177 28.0805 47.8557 28.5014 48.2596C28.582 48.3363 28.656 48.4188 28.7413 48.489C28.9793 48.6862 29.2277 48.7222 29.4618 48.4966C29.696 48.2709 29.6448 48.0396 29.4552 47.8234C29.1423 47.4682 28.8228 47.1206 28.4967 46.7806C28.3734 46.6516 28.1801 46.5492 28.2388 46.3151C28.4 46.3151 28.491 46.4279 28.5915 46.5274C28.692 46.627 28.7546 46.7426 28.8617 46.7882C29.4998 47.0574 29.8818 47.5608 30.2184 48.1391C30.4402 48.5184 30.8574 48.4473 31.2015 48.36C31.5125 48.2814 31.4812 47.9704 31.4566 47.721C31.4054 47.1863 31.8566 47.3636 32.0813 47.3162C32.3572 47.2593 32.3373 47.5561 32.306 47.7229C32.2112 48.2226 32.4899 48.6274 32.7725 48.9033C33.0977 49.2228 33.1195 49.4825 32.9839 49.8428C32.9981 49.9917 32.8407 50.0106 32.7848 50.1064C32.4368 50.5273 32.0661 50.9293 31.7561 51.3796C30.5104 52.7581 28.9413 53.637 27.2272 54.2788C24.7025 55.2269 22.0641 55.5416 19.3896 55.6061C16.0534 55.6905 12.7342 55.5672 9.51741 54.5481C7.14157 53.7896 5.05393 52.5884 3.50101 50.5795C3.50639 50.5258 3.50074 50.4717 3.48443 50.4204C3.46813 50.369 3.44152 50.3215 3.4062 50.2808C3.04688 49.9224 2.84587 49.4456 2.50457 49.073C2.3927 48.8483 2.28085 48.6246 2.16992 48.3999C2.26473 47.941 2.38322 47.8452 2.74728 48.032C3.11133 48.2188 3.41945 48.1211 3.69534 47.8851C4.04328 47.5912 4.4377 47.5845 4.85389 47.6471C5.20183 47.6992 5.3962 47.9315 5.53083 48.3496C5.99348 47.3835 6.78223 46.8469 7.4108 46.1691C7.54353 46.0259 7.67532 45.841 7.92371 45.9036C8.05265 46.0676 7.91141 46.1719 7.82419 46.2639C7.41178 46.6981 7.06574 47.1901 6.623 47.5988C6.57639 47.6412 6.53205 47.6862 6.49023 47.7334C6.28829 47.9647 6.15748 48.215 6.3888 48.4918C6.57083 48.7099 6.93581 48.6947 7.19558 48.4577C7.54134 48.135 7.86805 47.7925 8.17402 47.4319C8.28778 47.3011 8.4006 47.1693 8.52384 47.0527C8.94573 46.6393 9.11829 46.6308 9.5525 47.0527C10.6058 48.0728 11.5899 49.1583 12.5768 50.241C12.7152 50.3927 12.8404 50.5614 13.0205 50.6638C13.1344 50.7391 13.2729 50.7676 13.4073 50.7434C13.5416 50.7192 13.6615 50.6442 13.742 50.534C13.9458 50.2979 13.8861 50.077 13.6927 49.8608C12.9172 48.9915 12.1113 48.1543 11.2552 47.3646C10.8381 46.9787 10.5129 46.5113 10.1052 46.1103C9.98767 45.9965 9.90422 45.8259 9.98385 45.6799C10.2654 45.1414 10.6428 44.7034 11.1746 44.4189Z" fill="#FEC940"/>
<path d="M5.57227 24.1078C5.87091 23.5522 6.37051 23.1493 6.70328 22.6193C7.17731 21.7907 7.93577 21.2408 8.63639 20.6397C10.3287 19.1778 12.2798 18.1748 14.4196 17.5301C18.3964 16.5188 22.1131 17.1193 25.5697 19.3314C28.1077 20.9829 30.092 23.1625 31.6734 25.7289C31.7682 25.8882 31.7815 26.0484 31.8175 26.2134C32.7443 27.8187 33.4921 29.5208 34.0473 31.2893C34.0795 31.3936 34.0957 31.5017 34.1184 31.6088C34.1383 31.7984 34.016 31.7245 33.9563 31.678C33.8099 31.5542 33.7118 31.3826 33.6795 31.1936C33.5243 30.4691 33.2504 29.7752 32.8689 29.1401C32.7419 28.9277 32.6537 28.8708 32.4404 28.9381C32.2917 28.9963 32.1287 29.0066 31.9739 28.9675C31.4563 28.795 30.9472 28.7352 30.4039 28.8803C30.1129 28.9571 29.872 28.777 29.672 28.5409C29.2293 28.0195 29.1904 28.0147 28.6234 28.3646C28.4149 28.4935 28.2281 28.4925 28.0651 28.3333C27.7911 28.0659 27.4829 28.0346 27.1492 28.1636C26.7235 28.3276 26.3453 28.0792 25.9442 28.0403C25.2645 27.9759 24.5914 28.0669 23.9154 28.0763C23.6973 28.0763 23.5181 28.0602 23.3731 27.8735C23.0232 27.4222 22.6033 27.3539 22.1236 27.6563C22.0439 27.7066 21.9747 27.7739 21.8922 27.8204C21.5784 27.9958 21.3158 27.9152 21.1413 27.5976C21.0793 27.4871 21.039 27.3658 21.0228 27.2402C20.928 26.3499 20.3592 25.8181 19.6311 25.4056C19.1893 25.1573 19.1836 25.0264 19.5818 24.4244C19.7639 24.1086 20.0107 23.835 20.3061 23.6214C20.8361 23.2109 21.2115 22.6563 21.6979 22.2088C21.7693 22.1462 21.829 22.0714 21.8742 21.9879C21.9323 21.8922 21.9563 21.7796 21.9421 21.6686C21.928 21.5575 21.8767 21.4545 21.7965 21.3764C21.6068 21.1868 21.3888 21.219 21.1973 21.3697C20.9567 21.5486 20.7286 21.7437 20.5147 21.9538C19.8852 22.6174 19.2471 23.2649 18.5873 23.8963C18.1739 24.2917 18.0298 24.2888 17.5909 23.9437C16.8656 23.3749 16.3365 22.6165 15.6625 21.9993C15.4293 21.7859 15.1885 21.5821 14.9448 21.384C14.7182 21.2 14.5087 21.2304 14.3125 21.4209C14.1162 21.6115 14.1048 21.8381 14.2679 22.059C14.4082 22.2486 14.5959 22.3993 14.7561 22.5728C15.2681 23.1284 15.8777 23.5911 16.3119 24.2206C16.439 24.438 16.5812 24.6461 16.7376 24.8435C16.9045 25.0824 16.875 25.2909 16.6266 25.4464C16.1005 25.7735 15.7469 26.2997 15.2159 26.6249C15.1605 26.6575 15.1177 26.7079 15.0946 26.768C14.9306 27.2885 14.5883 27.4478 14.0517 27.3994C13.5957 27.3587 13.1985 27.3274 12.8932 26.914C12.5879 26.5007 12.4192 26.4969 12.0229 26.7898C11.7783 26.9681 11.5668 26.9984 11.3507 26.7898C11.1042 26.549 10.8283 26.531 10.5211 26.6315C10.1154 26.7642 9.82812 26.6713 9.64894 26.2447C9.52285 25.9442 9.10283 25.8285 8.6544 26.0342C8.23535 26.2238 7.8912 26.3186 7.48922 26.0077C7.40019 25.9374 7.28815 25.903 7.17504 25.9111C7.06193 25.9191 6.95592 25.9691 6.87775 26.0513C6.68814 26.2513 6.48239 26.3964 6.21883 26.2181C5.9401 26.0285 5.64147 25.7801 5.73628 25.4208C5.85953 24.9402 5.72016 24.5325 5.57227 24.1078Z" fill="#FEE46A"/>
<path d="M19.7067 24.4149C19.7036 24.4621 19.6931 24.5086 19.6754 24.5524C19.2961 25.1212 19.2961 25.1212 19.9247 25.3829C20.084 25.4502 20.2518 25.5109 20.2774 25.7252C20.284 25.783 20.3182 25.8807 20.3504 25.8854C21.161 25.9982 20.9752 26.7187 21.1174 27.2013C21.307 27.8422 21.5137 27.9598 22.0256 27.5455C22.3897 27.2525 22.8059 27.3615 23.2079 27.3757C23.2453 27.3846 23.2799 27.4028 23.3085 27.4287C23.337 27.4545 23.3585 27.4872 23.3709 27.5236C23.4098 28.0128 23.716 27.9408 24.0734 27.9342C24.7589 27.9209 25.4633 27.7521 26.1289 27.9398C26.6042 28.0742 27.1081 28.0702 27.5813 27.9285C27.8173 27.864 27.9453 28.0688 28.0961 28.2044C28.2174 28.3134 28.3075 28.4717 28.5255 28.2992C29.1465 27.7967 29.3172 27.8052 29.758 28.4471C30.0244 28.8329 30.3544 28.8547 30.7004 28.7116C30.8198 28.6536 30.9504 28.6226 31.0831 28.6206C31.2158 28.6187 31.3473 28.6458 31.4683 28.7002C31.8589 28.8746 32.2495 28.9429 32.6543 28.7476C32.7491 28.7011 32.953 28.668 32.9302 28.7713C32.8354 29.2027 33.2498 29.3762 33.3446 29.708C33.5181 30.3157 33.7314 30.9111 33.9333 31.5093C33.9589 31.587 33.9798 31.7169 34.1172 31.6107C34.2534 31.8814 34.3416 32.1736 34.3779 32.4744C33.8366 32.4687 33.3976 32.1692 32.8847 31.9757C32.7697 32.341 32.6261 32.6967 32.4553 33.0395C32.3434 33.268 32.1993 33.3305 32.0476 33.0916C31.8959 32.8527 31.7082 32.8006 31.456 32.7721C31.0247 32.7238 30.9658 32.5967 31.1431 32.1729C31.2132 32.0312 31.2403 31.872 31.2209 31.715C31.1925 31.5482 31.0768 31.4809 30.9232 31.46C30.7696 31.4392 30.6388 31.4183 30.5554 31.5832C30.5345 31.6259 30.525 31.6781 30.5032 31.715C30.4529 31.8098 29.2025 32.7048 29.0982 32.7257C29.0063 32.7532 28.9074 32.7454 28.8209 32.7038C28.7345 32.6623 28.6667 32.5899 28.6308 32.501C28.5625 32.3588 28.4753 32.2241 28.4175 32.081C28.2923 31.7729 28.1406 31.898 27.9776 32.0279C27.788 31.9881 27.7159 31.8468 27.6609 31.6866C27.5443 31.1737 27.2969 30.7784 26.7375 30.6655C26.6981 30.6456 26.6607 30.6221 26.6256 30.5954C26.2625 30.3062 25.8122 30.1924 25.4045 29.9924C25.1116 29.8483 24.8309 30.037 24.5513 30.1517C24.3324 30.2374 24.1187 30.3358 23.9113 30.4465C23.8696 30.4649 23.8265 30.4801 23.7824 30.492C23.534 30.5224 23.3813 30.7215 23.1794 30.8333C23.0571 30.9016 22.9528 31.0827 22.7793 30.9177C22.7537 30.5214 22.6182 30.4626 22.2522 30.6598C21.9678 30.8153 21.636 30.8343 21.399 31.1519C21.1856 31.4363 20.4329 31.2922 20.284 30.9623C20.102 30.5622 19.7863 30.4882 19.4308 30.5423C18.9449 30.6014 18.4552 30.6233 17.966 30.6077C17.7072 30.6077 17.5015 30.6523 17.4237 30.9462C17.3697 31.1538 17.199 31.2306 16.9952 31.2619C16.2178 31.3804 15.9694 31.2619 15.5835 30.5868C15.569 30.5584 15.5519 30.5314 15.5324 30.5063C15.3721 30.3299 15.3655 29.9573 15.0431 29.9981C14.7037 30.0408 14.6895 30.4029 14.5795 30.6532C14.5151 30.7973 14.5198 30.9632 14.4743 31.114C14.3795 31.4268 14.2089 31.6496 13.8514 31.6667C13.5101 31.6837 13.33 31.4932 13.22 31.1993C13.1849 31.0944 13.1425 30.992 13.093 30.8931C13.0105 30.9386 13.0228 31.0713 12.9138 31.0903C12.49 30.9955 12.3117 30.6115 12.0757 30.3204C11.8009 29.9749 11.4127 29.7377 10.9798 29.6511C10.3521 29.5117 9.72735 29.3667 9.09594 29.6596C8.95373 29.7269 8.80676 29.7743 8.70153 29.8985C8.30903 30.2778 7.81888 30.5394 7.54205 31.0495C7.00639 32.0326 7.02346 32.994 7.54205 33.9648C7.62726 34.0969 7.68977 34.2424 7.72694 34.3952C7.73168 34.6341 7.56575 34.7176 7.37614 34.7744C7.22634 34.8228 7.06801 34.8417 6.91442 34.8768C6.59208 34.9508 6.28968 35.0882 6.23374 35.4457C6.17496 35.8249 6.42334 36.0629 6.72008 36.243C7.59799 36.7711 8.55837 36.8592 9.55099 36.7606C9.67626 36.7454 9.80064 36.7236 9.92359 36.6952C10.5977 36.5511 10.7617 36.3387 10.7276 35.6571C10.7133 35.5632 10.7248 35.4672 10.7607 35.3793C10.8126 35.3011 10.8932 35.2467 10.9851 35.2279C11.0769 35.209 11.1725 35.2273 11.2509 35.2788C11.2566 35.658 11.2509 36.0373 10.9826 36.353C10.6555 36.9474 10.0175 36.9995 9.48086 37.0811C8.62485 37.2142 7.74866 37.0718 6.9789 36.6744C6.79688 36.5796 6.61581 36.4847 6.42905 36.4032C5.78152 36.1188 5.63931 35.5499 6.12282 35.0162C6.34372 34.7754 6.35508 34.637 6.05644 34.49C5.94741 34.435 5.83648 34.3213 5.88294 34.1828C6.01093 33.8036 5.77582 33.7903 5.5151 33.7951C5.32549 33.7951 5.14251 33.7951 4.99366 33.6396C4.69123 33.3211 4.29114 33.432 3.9214 33.4159C3.55165 33.3997 3.19519 33.4159 3.05393 33.8709C3.01222 34.0046 2.85766 33.9743 2.72303 33.9326C2.27839 33.7922 2.17033 33.8681 2.16938 34.3383C2.16843 34.8086 2.19023 35.2731 1.92857 35.6959L1.87834 35.6201C1.75889 35.4362 1.78353 35.0911 1.49342 35.1053C1.20331 35.1195 1.02792 35.3461 1.01939 35.6609C1.01939 35.6732 1.0023 35.6959 0.998513 35.695C0.970772 35.6872 0.943554 35.6777 0.916992 35.6666C1.08385 33.8596 1.58065 32.1265 2.18646 30.4304C2.89487 28.4124 3.86854 26.4976 5.08185 24.7363C5.23354 24.5183 5.40321 24.3135 5.56533 24.103C5.84975 24.3874 6.06118 24.6975 5.88863 25.1108C5.71608 25.5242 5.88864 25.8086 6.16263 26.0589C6.30864 26.1897 6.49444 26.3016 6.69259 26.0703C6.99692 25.7166 7.41596 25.6797 7.75916 25.9916C7.9573 26.1717 8.06918 26.2106 8.3043 26.0238C8.65982 25.7394 9.11299 25.8219 9.53678 25.8513C9.70838 25.8636 9.7264 26.0248 9.75958 26.1698C9.83258 26.4903 9.98523 26.6789 10.3635 26.532C10.7788 26.3708 11.1836 26.3168 11.4936 26.7614C11.5827 26.8894 11.6984 26.8903 11.8481 26.7614C12.417 26.2874 12.5867 26.2589 12.9858 26.823C13.2702 27.2203 13.585 27.2411 13.9899 27.2629C14.4639 27.2895 14.8564 27.2942 14.9616 26.7007C15.0138 26.4078 15.356 26.4239 15.5352 26.2532C15.8831 25.9214 16.1637 25.5156 16.6283 25.3109C16.8179 25.2274 16.7667 25.0682 16.6558 24.9165C16.4918 24.6918 16.2642 24.5088 16.1931 24.2215C16.6804 24.3088 16.908 24.6794 17.0853 25.0748C17.1715 25.2644 17.0085 25.4189 16.8881 25.5697C16.5032 26.0504 16.0054 26.4144 15.593 26.8647C15.2327 27.2572 15.2204 27.4582 15.5039 27.8991C15.6442 28.1171 15.8205 28.1105 16.0158 27.9797C16.05 27.9541 16.086 27.9323 16.122 27.9095C16.5477 27.5606 16.9667 27.2079 17.254 26.7273C17.3082 26.6258 17.3923 26.5434 17.4948 26.4912C17.8105 26.2769 18.1272 26.0864 18.4837 26.4173C18.9293 26.7718 19.2933 27.2108 19.7029 27.6033C19.8236 27.728 19.9567 27.8401 20.1001 27.938C20.3343 28.1276 20.5173 28.0735 20.6604 27.8223C20.9126 27.4705 20.7808 27.1672 20.5305 26.8903C20.1456 26.4574 19.734 26.0489 19.298 25.6673C18.8031 25.2445 18.9397 24.6738 19.7067 24.4149Z" fill="#FDDF63"/>
<path d="M10.9854 36.3606C11.1693 36.0335 10.9342 35.5945 11.265 35.3073C11.2593 35.2687 11.2663 35.2294 11.2849 35.1952C11.3036 35.1609 11.3329 35.1337 11.3684 35.1177C12.051 34.747 12.4672 34.1525 12.7725 33.4614C12.8027 33.4066 12.8372 33.3543 12.8758 33.305C13.0483 32.7134 13.1555 32.1265 12.8493 31.5378C12.7706 31.3861 12.7355 31.2088 12.8796 31.0571C13.1175 30.9348 12.7402 30.5717 13.0237 30.5584C13.255 30.5471 13.2133 30.8969 13.2977 31.0761C13.4247 31.3406 13.4873 31.6051 13.8665 31.5615C14.2827 31.515 14.3709 31.2154 14.3842 30.8978C14.3984 30.5452 14.6041 30.2778 14.7236 29.9763C14.8231 29.7251 15.3332 29.7583 15.409 30.0247C15.5038 30.3499 15.8148 30.5414 15.8527 30.8969C15.8707 31.0713 16.0603 31.1566 16.2575 31.1529C16.4936 31.1529 16.7316 31.1529 16.9657 31.1529C17.1999 31.1529 17.3308 31.0704 17.3308 30.8267C17.3308 30.5527 17.4938 30.4892 17.7327 30.4873C18.3287 30.4988 18.9249 30.4738 19.5179 30.4124C19.8839 30.365 20.3048 30.3887 20.3958 30.9519C20.4461 31.2704 20.7826 31.1244 20.9997 31.151C21.2168 31.1775 21.4339 31.151 21.4738 30.8884C21.5136 30.6257 21.6255 30.5205 21.8834 30.6352C21.9409 30.6613 22.0051 30.6686 22.067 30.6562C22.129 30.6438 22.1854 30.6122 22.2284 30.566C22.3924 30.4276 22.565 30.2162 22.7973 30.3584C23.0627 30.5195 22.766 30.7604 22.8229 30.9632C22.8722 31.0931 22.7793 31.1623 22.7081 31.2477C22.3466 31.6743 22.1247 32.2017 22.0725 32.7585C22.0203 33.3153 22.1402 33.8747 22.4161 34.3611C22.8854 35.1603 23.623 35.6543 24.3986 36.1074C24.6052 37.0166 25.084 37.3835 26.2615 37.4622C26.9526 37.5087 27.6495 37.5267 28.3188 37.2726C28.4854 37.2246 28.6421 37.1472 28.7814 37.0441C29.2403 36.6488 29.2081 36.1605 28.6866 35.8429C28.3482 35.6353 27.9671 35.5234 27.5916 35.4002C27.2712 35.1499 27.5385 34.9859 27.6779 34.802C28.0685 34.473 28.2572 34.0757 28.1036 33.56C28.0761 33.2756 28.1358 32.9826 28.0382 32.7067C28.0088 32.4754 27.7537 32.2763 27.9386 32.0147C27.9777 31.9501 28.0095 31.8814 28.0334 31.8099C28.0543 31.7151 28.077 31.6089 28.1794 31.588C28.3283 31.5586 28.369 31.7008 28.3861 31.7956C28.4335 32.0658 28.6857 32.2175 28.7369 32.5029C28.7824 32.7608 29.2725 32.702 29.447 32.3872C29.5816 32.1436 29.7229 31.9957 30.0158 31.991C30.0961 31.9909 30.1744 31.9659 30.2399 31.9196C30.3054 31.8733 30.3549 31.8078 30.3818 31.7321C30.4301 31.5909 30.3458 31.3529 30.5306 31.3216C30.7464 31.2927 30.966 31.3134 31.1725 31.3823C31.4029 31.4506 31.4493 31.972 31.2284 32.2611C31.0075 32.5503 31.072 32.6774 31.3962 32.6688C31.7982 32.6584 32.1253 32.7143 32.2002 33.2377C32.4068 32.7522 32.7121 32.3844 32.7188 31.8923C32.7188 31.6838 32.9197 31.6951 32.969 31.77C33.3009 32.2829 33.9626 32.1303 34.3627 32.4887C34.4575 32.7295 34.3447 33.0016 34.4802 33.2358C34.6329 33.4699 34.4348 33.8217 34.7381 34.0046C34.65 34.3336 34.904 34.619 34.8595 34.9423C34.9543 35.3215 34.8746 35.7206 35.0292 36.0885L35.124 36.2781C35.0292 36.8213 35.2254 37.3466 35.2188 37.8898C35.2558 37.9846 35.3648 38.0557 35.3136 38.1799C35.2283 38.3932 35.3515 38.6302 35.2378 38.8435C34.9183 38.872 34.7903 38.6473 34.6917 38.4093C34.5096 37.9694 34.2044 37.8291 33.7503 37.96C33.6277 37.9859 33.5009 37.9833 33.3796 37.9524C32.9567 37.8633 32.6145 37.8234 32.3576 38.3316C32.1964 38.6511 31.729 38.616 31.3744 38.6473C31.0796 38.671 31.09 38.4188 31.035 38.2264C30.9847 38.0519 30.8605 37.9941 30.6776 37.9856C30.2983 37.9694 29.9343 37.8528 29.5522 37.8907C29.4813 37.8992 29.4095 37.8906 29.3427 37.8655C29.2759 37.8404 29.216 37.7997 29.1683 37.7466C29.1028 37.6793 28.9787 37.5712 28.9331 37.6272C28.5985 38.0159 28.2164 37.394 27.9026 37.6822C27.2494 38.2823 26.5933 38.0121 25.8918 37.7703C25.4768 37.6196 25.0291 37.582 24.5948 37.6613C24.0544 37.7827 23.6467 37.7912 23.295 37.3058C23.1717 37.1342 22.9395 37.1295 22.7262 37.1313C22.1109 37.137 21.4937 37.1313 20.8793 37.1313C20.6897 37.1313 20.4793 37.1465 20.4679 36.8668C20.4432 36.2032 20.4442 36.2032 19.8791 36.2762C19.608 35.8183 19.608 35.8183 19.1368 36.0999C17.7668 36.9199 16.3391 36.7635 15.1549 35.6618C15.0997 35.6058 15.0404 35.5538 14.9776 35.5064C14.8686 35.4324 14.7501 35.3698 14.6354 35.4817C14.5207 35.5936 14.5908 35.7121 14.6553 35.824C14.7966 36.0648 15.1037 36.1861 15.1407 36.5018C14.7918 36.755 14.4771 36.9048 14.0419 36.5834C13.87 36.4563 13.6663 36.3792 13.4533 36.3606C13.2403 36.342 13.0263 36.3827 12.835 36.4781C12.5041 36.6298 12.1221 36.6611 11.8538 36.4127C11.5542 36.1018 11.2906 36.171 10.9854 36.3606Z" fill="#FEDD5F"/>
<path d="M31.8188 26.2161C30.3162 23.6725 28.4532 21.4559 26.0015 19.7693C25.8593 19.6745 25.7237 19.5645 25.5853 19.4621C25.4251 19.2356 25.5275 18.9995 25.5787 18.7767C25.9031 17.2976 26.1436 15.8014 26.2992 14.2952C26.2688 13.5368 26.284 12.784 26.2869 12.0284C26.2869 11.8132 26.2594 11.5809 26.4519 11.4131C26.6263 12.0549 26.4736 12.7176 26.5637 13.4211C28.092 12.546 29.6497 11.834 31.3657 11.5344C31.0149 11.9421 31.2149 12.3877 31.3012 12.8115C31.5297 13.9321 31.6103 15.0811 31.87 16.1885C32.1118 17.2095 32.3109 18.2325 32.4541 19.2697C32.4797 19.4259 32.5403 19.5744 32.6313 19.7039C32.762 19.9033 32.8263 20.1389 32.8152 20.377C32.802 20.7183 32.8531 21.0331 33.0778 21.309C33.1681 21.4412 33.2091 21.6009 33.1935 21.7603C33.1935 22.1272 33.2058 22.4789 33.4779 22.7766C33.6562 22.9719 33.5348 23.1871 33.3651 23.4108C33.6296 23.389 33.7737 23.0762 34.0089 23.2809C33.5159 24.229 32.8039 25.0159 32.0976 25.8047C31.9914 25.9317 31.8236 26.0142 31.8188 26.2161Z" fill="#51A257"/>
<path d="M14.3881 17.659C12.2956 18.2783 10.3559 19.3288 8.694 20.7431C8.00286 21.3366 7.36671 21.9917 6.70307 22.6193C5.96642 21.4883 5.5398 20.2264 5.17006 18.9437C4.71153 17.393 4.44035 15.7929 4.3623 14.1777C4.61354 14.0716 4.70171 14.2631 4.78704 14.4261C4.87236 14.5892 4.97665 14.6793 5.19566 14.6451C6.01763 14.5172 6.80738 14.2109 7.654 14.2062C7.8292 14.1948 7.9971 14.1318 8.13655 14.0251C8.38448 13.8521 8.67899 13.7583 8.98129 13.7559C9.07642 13.7634 9.17199 13.7482 9.26002 13.7113C10.119 13.2429 11.0708 13.3719 11.9885 13.2885C12.2243 13.275 12.4527 13.2016 12.6522 13.0751C12.9317 12.8925 13.2608 12.8008 13.5945 12.8125C14.3122 12.8201 14.5426 13.0268 14.6318 13.7502C14.5275 15.0519 14.4639 16.3564 14.3881 17.659Z" fill="#51A457"/>
<path d="M34.0133 23.2769C33.8132 23.2551 33.6966 23.3537 33.6018 23.5243C33.5374 23.64 33.4425 23.7898 33.2766 23.6191C33.161 23.5006 33.1126 23.3432 33.2624 23.2551C33.616 23.0455 33.4909 22.8758 33.2558 22.6862C33.198 22.6398 33.1155 22.5544 33.1259 22.5014C33.2691 21.7429 32.6519 21.1418 32.6936 20.408C32.7097 20.1236 32.6623 19.8752 32.4556 19.6695C32.4131 19.6351 32.3786 19.5919 32.3547 19.5427C32.3308 19.4936 32.318 19.4397 32.3172 19.3851C32.3532 18.8741 32.1646 18.4076 32.0735 17.9222C31.9712 17.3809 31.9892 16.8139 31.7436 16.2972C31.4421 15.662 31.6924 14.9415 31.4592 14.3063C31.1748 13.5478 31.2525 12.7164 30.9463 11.9617C30.7974 11.5958 31.3018 11.7494 31.3682 11.5275C32.9657 11.1682 34.5679 10.9919 36.1834 11.4213C37.1239 11.6716 37.4377 12.0613 37.4576 13.0274C37.4993 14.968 36.9533 16.7921 36.3427 18.6039C35.8526 20.0591 35.0817 21.3817 34.3906 22.7412C34.278 22.9287 34.1519 23.1077 34.0133 23.2769Z" fill="#52B85C"/>
<path d="M14.4926 13.7062C14.5628 12.8681 13.6972 12.7079 13.0762 13.0425C12.1651 13.5336 11.2294 13.4151 10.2974 13.509C10.0737 13.5317 9.87176 13.5488 9.67931 13.6872C9.46156 13.8494 9.19107 13.9245 8.92085 13.8977C8.76442 13.8816 8.58526 13.8664 8.4658 13.9783C8.04581 14.3708 7.51771 14.293 7.01334 14.3964C6.42175 14.5177 5.81404 14.5973 5.23762 14.786C4.93519 14.8808 4.73233 14.951 4.69535 14.5224C4.69356 14.4334 4.65814 14.3484 4.59624 14.2844C4.53434 14.2204 4.45055 14.1821 4.36163 14.1774C4.21373 12.5031 4.23932 10.8354 4.63087 9.19244C4.93804 7.90592 5.51067 7.52669 6.81141 7.68691C9.81014 8.05476 12.2903 9.47496 14.4907 11.4631C14.6007 11.5626 14.6671 11.7389 14.8652 11.7105C14.9809 11.9949 14.8311 12.2661 14.8131 12.5448C14.8074 12.8377 14.7372 13.1222 14.7031 13.4113C14.6955 13.5384 14.6946 13.7014 14.4926 13.7062Z" fill="#52BD5E"/>
<path d="M15.6304 9.24555C16.0299 8.04779 16.571 6.90201 17.2421 5.83252C18.3343 5.99085 19.4369 5.97188 20.5347 6.02782C20.7234 6.05275 20.9143 6.05561 21.1036 6.03636C21.2357 6.00851 21.3725 6.01275 21.5027 6.04871C21.6328 6.08467 21.7525 6.15131 21.8516 6.24303C22.1616 6.52745 22.4726 6.57391 22.8319 6.33025C22.9358 6.25593 23.0573 6.21015 23.1844 6.19751C23.3115 6.18487 23.4397 6.20579 23.5562 6.2582C24.2075 6.54262 24.9204 6.43359 25.5898 6.59097C26.0126 7.91826 26.3482 9.26166 26.3321 10.6676C25.9908 10.6307 25.6552 10.552 25.3348 10.7928C25.2001 10.8933 25.0304 10.7767 24.911 10.6667C24.7403 10.5103 24.5422 10.4022 24.3128 10.4306C23.5657 10.5254 22.8859 10.2543 22.1957 10.0514C22.0474 9.99869 21.8895 9.97811 21.7326 9.99103C21.5757 10.0039 21.4233 10.05 21.2856 10.1263C21.1371 10.218 20.9667 10.2677 20.7922 10.2702C20.6177 10.2728 20.4459 10.2279 20.2949 10.1405C20.0389 10.0031 19.7535 9.99452 19.4767 9.93858C18.7704 9.79827 18.0754 9.61719 17.3435 9.62667C17.0638 9.62667 16.7823 9.58022 16.4998 9.63236C16.2645 9.67237 16.0228 9.64441 15.8029 9.55177C15.6607 9.50058 15.5271 9.43516 15.6304 9.24555Z" fill="#6CDA7D"/>
<path d="M15.6307 9.24561C15.8677 9.567 16.1995 9.50917 16.5408 9.51296C17.3713 9.52244 18.2227 9.37075 19.0162 9.75566C19.2428 9.86564 19.5016 9.74997 19.7111 9.83056C20.3938 10.0922 21.0299 10.2098 21.7504 9.85521C22.013 9.72627 22.5136 9.89503 22.8161 10.0761C23.2816 10.3548 23.7546 10.2818 24.2325 10.2904C24.5415 10.2904 24.8231 10.2999 25.0127 10.6089C25.1549 10.8402 25.3692 10.7454 25.4915 10.6089C25.7588 10.297 25.9741 10.2581 26.1969 10.6402C26.213 10.6687 26.2831 10.6658 26.3286 10.6772C26.4331 10.9085 26.4762 11.1629 26.4538 11.4157L26.4339 14.3708C26.3719 14.3867 26.3065 14.3828 26.2468 14.3597C26.1872 14.3365 26.1362 14.2954 26.1011 14.2419C25.7086 13.7679 25.1644 13.6731 24.6051 13.6674C23.9518 13.6674 23.3233 13.6152 22.7089 13.3574C22.2823 13.1791 21.8026 13.29 21.3466 13.2825C20.9806 13.2768 20.627 13.2635 20.2876 13.0928C19.9814 12.9374 19.6363 13.0037 19.3063 12.998C18.9119 12.9924 18.5175 12.9895 18.1222 12.998C17.7771 13.0056 17.4661 12.9402 17.2083 12.6899C17.0243 12.5117 16.811 12.4918 16.5531 12.5316C16.0981 12.6017 15.6259 12.4908 15.1728 12.6833C15.0793 12.7196 14.9753 12.7175 14.8835 12.6773C14.7916 12.6372 14.7194 12.5623 14.6826 12.469C14.7442 12.2149 14.8068 11.9609 14.8722 11.7106C15.0377 10.8645 15.2919 10.0383 15.6307 9.24561Z" fill="#60D571"/>
<path d="M7.95126 45.9303C7.75027 45.9303 7.65262 46.0906 7.53222 46.2091C7.08473 46.6518 6.64769 47.1059 6.19262 47.5364C5.99148 47.7131 5.84895 47.9469 5.784 48.2066C5.7603 48.3081 5.78397 48.4541 5.63512 48.4645C5.48628 48.4749 5.38295 48.3526 5.32038 48.2208C5.25487 48.0921 5.16133 47.9798 5.04666 47.892C4.93198 47.8042 4.7991 47.7432 4.65776 47.7135C4.51641 47.6839 4.37021 47.6863 4.22992 47.7206C4.08963 47.7549 3.9588 47.8202 3.84709 47.9118C3.45649 48.2341 3.10951 48.4446 2.60988 48.0701C2.31598 47.8492 2.31881 48.2825 2.16617 48.3925C1.44944 47.0472 1.09487 45.59 0.848374 44.1015C0.761152 43.5753 0.667307 43.0482 0.672047 42.5116C0.825634 42.1988 0.742176 41.8641 0.738384 41.5417C0.738384 41.2782 0.85787 41.1796 1.07687 41.1227C1.2729 41.0727 1.48033 41.0939 1.66214 41.1826C1.84396 41.2714 1.98831 41.4218 2.06947 41.6072C2.19935 41.9219 2.47808 41.921 2.73311 41.9371C2.98814 41.9532 3.1569 41.9513 3.28584 42.2367C3.42426 42.5448 3.7703 42.5562 4.06799 42.4898C4.3856 42.4187 4.25761 42.1523 4.25761 41.9485C4.25761 41.8849 4.25761 41.8224 4.25761 41.7588C4.65105 41.8404 4.88333 42.1646 5.11086 42.4291C5.73943 43.1563 6.43816 43.8057 7.11318 44.4883C7.43363 44.8135 7.69909 45.1842 8.01764 45.5103C8.15132 45.6516 8.32385 45.8478 7.95126 45.9303Z" fill="#FECF4A"/>
<path d="M25.5851 6.59122C25.5586 6.79315 25.3955 6.83866 25.278 6.75049C24.9755 6.52675 24.6428 6.61586 24.3195 6.59501C24.2726 6.60171 24.2251 6.60171 24.1782 6.59501C23.5828 6.36842 23.0102 6.21578 22.4205 6.66611C22.2556 6.79315 22.0129 6.57699 21.8517 6.41772C21.626 6.19398 21.3644 6.2044 21.0562 6.16838C19.7858 6.02238 18.4747 6.3523 17.2422 5.83277C18.2718 3.97551 19.4948 2.27089 21.2241 0.997642C22.0119 0.420272 22.4566 0.500856 23.0918 1.2631C24.0834 2.45576 24.6921 3.857 25.1955 5.30754C25.3434 5.73796 25.4562 6.16648 25.5851 6.59122Z" fill="#7BE28D"/>
<path d="M35.2552 38.8253C35.2874 38.6053 35.1841 38.3702 35.331 38.1616L35.3623 38.9855C35.4182 39.8555 35.4182 40.7283 35.3623 41.5984L35.3254 42.5142C35.1765 42.152 35.2675 41.7737 35.2599 41.404C35.2409 40.5441 35.2552 39.6833 35.2552 38.8253Z" fill="#FDDF63"/>
<path d="M2.50391 49.0703C2.95898 49.4249 3.22063 49.9416 3.58279 50.3739C3.62735 50.4279 3.57048 50.5246 3.50127 50.5768C3.10425 50.1205 2.76893 49.614 2.50391 49.0703Z" fill="#FECF4A"/>
<path d="M31.7559 51.3738C32.0118 50.8789 32.2849 50.3983 32.7845 50.1006C32.5484 50.6116 32.1531 50.9937 31.7559 51.3738Z" fill="#FED451"/>
<path d="M35.3584 41.5992V38.9863C35.4684 39.8538 35.4684 40.7317 35.3584 41.5992Z" fill="#FED451"/>
<path d="M35.2364 37.8773C35.1596 37.3445 34.9444 36.8193 35.1415 36.2656C35.1871 36.8003 35.3416 37.3294 35.2364 37.8773Z" fill="#FDDF63"/>
<path d="M35.0468 36.0759C34.6988 35.7365 34.9519 35.3089 34.877 34.9297C35.0278 35.2937 35.1198 35.6701 35.0468 36.0759Z" fill="#FDDF63"/>
<path d="M34.7557 33.9901C34.3101 33.8545 34.5585 33.4857 34.4978 33.2212C34.7605 33.4212 34.6287 33.7455 34.7557 33.9901Z" fill="#FDDF63"/>
<path d="M7.9516 45.9302C8.21327 45.8022 8.03407 45.6979 7.93642 45.5813C7.31923 44.8456 6.62433 44.1858 5.95215 43.5032C5.38332 42.9267 4.82015 42.3437 4.25416 41.7644C4.10057 41.444 4.06456 41.1245 4.36035 40.8704C4.65615 40.6163 4.92919 40.7481 5.21361 40.9424C5.59283 41.1965 5.83838 41.5568 6.13607 41.8791C6.98933 42.8063 7.96867 43.615 8.75936 44.6048C8.94138 44.8323 9.08267 44.765 9.25427 44.5839C10.0241 43.7715 10.7967 42.9618 11.5808 42.1645C11.8367 41.9047 12.0975 41.5426 12.5288 41.9284C12.9014 42.2631 12.9081 42.5797 12.5061 43.0301C12.0785 43.5041 11.6794 44.0123 11.1788 44.418C10.866 44.7461 10.5483 45.0722 10.2393 45.404C10.0079 45.6524 10.007 45.8676 10.2734 46.1293C11.1561 46.9968 11.961 47.9401 12.8967 48.7592C13.256 49.0749 13.5158 49.4987 13.8647 49.841C14.096 50.0694 14.0988 50.3709 13.8239 50.6354C13.5272 50.9198 13.165 51.0042 12.9062 50.7141C12.2672 49.9945 11.5419 49.3565 10.9228 48.6236C10.4213 48.0302 9.84677 47.5154 9.31111 46.9636C9.10823 46.755 8.91671 46.7882 8.71478 47.0138C8.25591 47.5296 7.78002 48.0311 7.29935 48.5307C6.99218 48.8474 6.49634 48.8777 6.25648 48.5639C6.01662 48.2501 6.12565 47.9486 6.37499 47.6765C6.90211 47.0954 7.42733 46.5123 7.9516 45.9302Z" fill="#ECB834"/>
<path d="M28.2397 46.3092C28.69 46.807 29.1394 47.3066 29.5916 47.8024C29.8656 48.1039 29.7878 48.3713 29.5205 48.6216C29.2531 48.8718 28.9602 48.8614 28.7222 48.6273C28.2852 48.1978 27.814 47.8005 27.449 47.3C26.9863 46.6648 26.8858 46.6562 26.3483 47.2052C25.2258 48.3529 24.107 49.5048 22.9921 50.6608C22.8904 50.7723 22.7549 50.8473 22.6063 50.8742C22.4578 50.9011 22.3045 50.8784 22.1702 50.8097C21.9436 50.7073 21.8857 50.4181 21.8857 50.1461C21.8867 50.0834 21.9002 50.0216 21.9254 49.9643C21.9507 49.907 21.9871 49.8553 22.0327 49.8123C23.2513 48.5634 24.4692 47.3142 25.6865 46.0646C25.8761 45.875 26.0354 45.7139 25.679 45.5451C24.9452 44.7336 24.2113 43.9211 23.4775 43.1076C23.3628 42.9806 23.2623 42.8393 23.1552 42.7038C22.9732 42.4734 22.9608 42.2458 23.1779 42.0297C23.395 41.8135 23.6586 41.6505 23.9725 41.8571C24.1304 41.9609 24.2728 42.0867 24.3953 42.2307C25.0684 43.0441 25.8619 43.7419 26.5758 44.5146C26.8147 44.7724 26.9465 44.7241 27.1636 44.4965C28.2741 43.3355 29.3934 42.1829 30.5216 41.0389C30.9369 40.6152 31.264 40.6019 31.5598 40.9622C31.7968 41.2466 31.7854 41.5158 31.537 41.805C30.5188 42.9882 29.383 44.0566 28.289 45.1649C27.7533 45.7129 27.7514 45.711 28.2397 46.3092Z" fill="#EBB834"/>
<path d="M15.1563 36.4857C14.9446 36.3 14.7457 36.1001 14.561 35.8875C14.4444 35.7367 14.2566 35.5424 14.5373 35.3376C14.7601 35.1745 14.9231 35.2067 15.1061 35.4011C16.3054 36.6611 17.827 36.8327 19.2501 35.8751C19.4056 35.7699 19.5496 35.6248 19.7554 35.75C19.9611 35.8751 19.8834 36.0809 19.891 36.2619C18.3665 37.4214 16.7861 37.4641 15.1563 36.4857Z" fill="#040201"/>
<path d="M14.6826 12.4689C14.9869 12.596 15.2836 12.6529 15.5605 12.3997C15.6259 12.34 17.0831 12.3571 17.1286 12.4263C17.4699 12.942 17.9932 12.8491 18.49 12.8491C18.9005 12.8491 19.3101 12.8539 19.7225 12.8491C20.0069 12.8491 20.2913 12.8491 20.5265 13.0473C20.6734 13.1743 20.8554 13.1307 21.0261 13.1335C21.8054 13.1487 22.598 13.033 23.3356 13.4179C23.5389 13.5063 23.762 13.5391 23.9821 13.5128C24.9131 13.4616 25.8072 13.5232 26.431 14.3603C26.4243 15.1491 26.1836 15.9066 26.1181 16.6878C26.0385 17.6273 25.7238 18.5242 25.5844 19.4543C24.3443 18.7252 23.0654 18.0805 21.6746 17.688C19.2504 17.0054 16.8205 17.0395 14.3878 17.6539C14.2105 17.0073 14.3053 16.3494 14.3271 15.698C14.3498 15.0344 14.4361 14.3708 14.4939 13.7014C14.6427 13.308 14.6352 12.8861 14.6826 12.4689Z" fill="#55CF65"/>
<path d="M15.4409 28.0174C15.0474 27.5149 15.0616 27.2418 15.53 26.7583C15.9424 26.3326 16.4003 25.9563 16.8032 25.5164C17.0441 25.2547 17.0706 25.0746 16.8497 24.8442C16.6449 24.628 16.4155 24.4356 16.1965 24.2327C15.5594 23.5776 14.9279 22.9158 14.2804 22.2702C13.996 21.9858 13.8832 21.7014 14.179 21.3695C14.4748 21.0377 14.7033 21.0529 15.0996 21.3695C15.7438 21.9002 16.3373 22.4895 16.8725 23.1301C17.1569 23.4619 17.5209 23.7245 17.8432 24.0241C18.0547 24.2194 18.2433 24.1 18.3846 23.9596C19.0587 23.2894 19.7119 22.6011 20.3822 21.9261C20.5917 21.7156 20.823 21.526 21.0458 21.3259C21.3122 21.0861 21.5976 21.0131 21.8905 21.269C22.1465 21.4928 22.1418 21.9251 21.8801 22.1953C21.2895 22.8049 20.7311 23.4458 20.0845 23.9966C19.949 24.1278 19.8223 24.2678 19.7053 24.4157C19.6209 24.4839 19.5308 24.5474 19.4531 24.6223C18.9553 25.1068 18.9553 25.1343 19.4313 25.6121C19.8266 26.0084 20.2314 26.3952 20.6144 26.8029C20.9235 27.1328 21.1084 27.4978 20.7453 27.9169C20.5443 28.0809 20.3348 28.1871 20.0817 28.0174C19.6418 27.897 19.4796 27.4485 19.1449 27.203C18.888 27.0134 18.6927 26.7375 18.469 26.4995C18.0518 26.1734 18.0518 26.1734 17.5209 26.5943C17.4776 26.6105 17.4382 26.6358 17.4055 26.6685C17.3727 26.7012 17.3474 26.7406 17.3313 26.7839C16.9598 27.2323 16.5471 27.6449 16.0988 28.0164C16.001 28.0802 15.8868 28.1142 15.77 28.1144C15.6532 28.1145 15.5389 28.0808 15.4409 28.0174Z" fill="#FEC73B"/>
<path d="M24.358 36.0809C23.4602 35.8287 22.8553 35.2172 22.3671 34.4597C21.6181 32.8167 22.077 31.2733 23.8034 30.3963C23.8285 30.4 23.8542 30.3953 23.8764 30.383C24.8633 29.8644 25.8076 29.9782 26.7206 30.5726C27.2193 30.7765 27.5321 31.1604 27.754 31.6335C27.7303 31.8032 27.8858 31.8743 27.9502 31.9957C27.8706 32.2564 28.1749 32.409 28.1398 32.6593C28.2612 33.2082 28.1398 33.7449 28.0555 34.2834C28.0134 34.428 27.9381 34.5608 27.8355 34.6711C27.6158 34.8845 27.4343 35.134 27.2989 35.4087C26.6694 35.9453 25.9716 36.3094 25.1184 36.2914C24.8482 36.2876 24.5799 36.2658 24.358 36.0809Z" fill="#FEFDFD"/>
<path d="M12.958 33.4156C12.7409 33.5379 12.7684 33.7948 12.6641 33.9778C12.3303 34.5656 11.8364 34.9704 11.2676 35.3051C11.1022 35.3031 10.9391 35.3432 10.7935 35.4217C10.7584 35.4833 10.7077 35.5345 10.6464 35.5701C10.5852 35.6057 10.5155 35.6245 10.4446 35.6246C9.54492 35.7194 8.73338 35.5108 8.02518 34.9325C7.93663 34.8676 7.86176 34.7859 7.80483 34.692C7.74789 34.5982 7.71 34.494 7.69335 34.3855C6.65048 33.153 6.8316 31.0521 8.25465 30.1192C8.38453 30.0348 8.50113 29.9296 8.62438 29.8348C9.66062 29.1645 11.2429 29.4366 12.1161 30.2974C13.031 31.2 13.2168 32.2296 12.958 33.4156Z" fill="#FEFEFD"/>
<path d="M7.69049 34.3848C8.04325 34.849 8.52772 35.1962 9.08073 35.3811C9.63374 35.5659 10.2296 35.5798 10.7907 35.421C11.0694 36.2268 10.9338 36.6184 9.86913 36.8336C8.80446 37.0488 7.76063 36.9464 6.77654 36.4345C6.37551 36.2259 6.06741 35.9481 6.06836 35.4674C6.06836 35.1138 6.47982 34.8389 6.98703 34.7317C7.23827 34.6796 7.5843 34.7545 7.69049 34.3848Z" fill="#E9ADCB"/>
<path d="M12.9576 33.4158C12.9528 32.7777 13.0742 32.1406 12.8447 31.5045C12.3641 30.1772 10.9069 29.3135 9.51606 29.5695C9.20965 29.6271 8.90982 29.7154 8.62109 29.833C8.88371 29.4197 9.36915 29.4216 9.74173 29.3751C10.3058 29.3059 10.8898 29.4614 11.4407 29.6595C12.0313 29.8766 12.275 30.4502 12.6883 30.8494C12.7547 30.9129 12.8173 30.9802 12.8779 31.0466C12.8182 31.349 12.9936 31.604 13.0903 31.8562C13.3074 32.4175 13.0893 32.9057 12.9576 33.4158Z" fill="#FEE46A"/>
<path d="M23.8059 30.3963C23.3774 30.7546 22.8986 31.0428 22.58 31.5339C21.9666 32.482 22.0302 33.4547 22.3696 34.4578C22.1146 34.3734 22.161 34.1231 22.1155 33.9439C21.8311 32.8271 21.8226 31.7634 22.8351 30.9537C23.1707 30.7897 23.3631 30.3754 23.8059 30.3963Z" fill="#FEE46A"/>
<path d="M26.7231 30.5774C25.8025 30.1128 24.8535 30.0673 23.8789 30.3878C24.8383 29.6464 25.9751 29.7241 26.7231 30.5774Z" fill="#FEE46A"/>
<path d="M6.68088 33.522C6.77568 33.522 7.16818 34.2359 7.15491 34.3383C7.15534 34.3579 7.15045 34.3773 7.14074 34.3945C7.13103 34.4116 7.11688 34.4257 7.09977 34.4354C7.08267 34.4452 7.06324 34.4501 7.04357 34.4496C7.02391 34.4492 7.0047 34.4435 6.98802 34.4331C6.76523 34.3003 6.30636 34.5004 6.34618 33.9988C6.36704 33.777 6.43438 33.5656 6.68088 33.522Z" fill="#FED451"/>
<path d="M27.757 31.6361C27.4455 31.2521 27.0993 30.8976 26.7227 30.5771C27.3863 30.6189 27.6319 31.0692 27.757 31.6361Z" fill="#FEE46A"/>
<path d="M1.69962 34.1212C1.67402 34.2425 1.75553 34.4407 1.52894 34.435C1.34596 34.435 1.32134 34.271 1.32229 34.1202C1.32324 33.9695 1.36592 33.8178 1.54889 33.8244C1.73187 33.8311 1.68255 34.0008 1.69962 34.1212Z" fill="#FED451"/>
<path d="M16.1045 28.0176C16.4775 27.5707 16.89 27.1582 17.337 26.7852C17.0535 27.3061 16.6255 27.7341 16.1045 28.0176Z" fill="#FEDD5F"/>
<path d="M17.5264 26.5954C17.5592 26.5427 17.5956 26.4924 17.6354 26.4447C18.0658 25.9811 18.0658 25.982 18.4744 26.5006C18.1265 26.2162 17.8288 26.4323 17.5264 26.5954Z" fill="#FEDD5F"/>
<path d="M15.4404 28.0176H16.1041C15.8822 28.302 15.6623 28.3067 15.4404 28.0176Z" fill="#FEDD5F"/>
<path d="M20.0859 28.0175C20.3117 28.0296 20.5375 27.9954 20.7496 27.917C20.5647 28.1967 20.3704 28.3806 20.0859 28.0175Z" fill="#FEDD5F"/>
<path d="M24.3586 36.0808C25.4687 36.3406 26.4196 36.0011 27.2767 35.3072C27.3196 35.2757 27.3714 35.2588 27.4246 35.2588C27.4778 35.2588 27.5296 35.2757 27.5725 35.3072C28.0465 35.3166 28.457 35.547 28.8448 35.7632C29.0723 35.8893 29.3188 36.1528 29.2657 36.4951C29.2392 36.6739 29.1655 36.8424 29.0519 36.9831C28.9384 37.1238 28.7893 37.2316 28.6201 37.2953C27.7535 37.646 26.8482 37.6745 25.9352 37.5323C25.7342 37.5019 25.538 37.4375 25.3398 37.3929C24.6837 37.2355 24.3349 36.77 24.3586 36.0808Z" fill="#E7ADCB"/>
<path d="M27.7538 34.6301L27.9178 34.3599C28.0628 34.1703 28.0477 33.9428 28.097 33.7304C28.1159 33.6508 28.133 33.5834 28.2373 33.609C28.4023 34.1437 28.1984 34.5372 27.7633 34.8415C27.737 34.8131 27.7216 34.7762 27.7199 34.7375C27.7182 34.6989 27.7301 34.6608 27.7538 34.6301Z" fill="#FDDF63"/>
<path d="M28.2394 33.6111C28.0498 33.8254 28.21 34.1895 27.9199 34.362C28.0147 33.7989 28.1797 33.2442 28.1418 32.6631C28.3399 32.9598 28.1939 33.2945 28.2394 33.6111Z" fill="#FEE46A"/>
<path d="M27.7543 34.6304C27.7543 34.7005 27.761 34.7716 27.7648 34.8418C27.7297 35.0086 27.4301 35.0655 27.5752 35.3063H27.2803C27.3732 35.0333 27.5922 34.8541 27.7543 34.6304Z" fill="#FEE46A"/>
<path d="M27.0892 33.1939C27.0838 33.5836 26.963 33.963 26.7421 34.2842C26.5212 34.6054 26.2102 34.8539 25.8482 34.9985C25.4862 35.1431 25.0895 35.1772 24.7081 35.0965C24.3268 35.0158 23.9779 34.824 23.7054 34.5452C23.433 34.2664 23.2493 33.9132 23.1774 33.5301C23.1055 33.147 23.1487 32.7512 23.3016 32.3926C23.4544 32.034 23.7101 31.7288 24.0362 31.5154C24.3624 31.3019 24.7445 31.1899 25.1343 31.1934C25.3942 31.1958 25.6511 31.2495 25.8902 31.3514C26.1292 31.4533 26.3458 31.6015 26.5275 31.7874C26.7092 31.9732 26.8523 32.1932 26.9487 32.4346C27.0451 32.6759 27.0928 32.934 27.0892 33.1939Z" fill="#010101"/>
<path d="M10.0192 30.5679C10.4056 30.5692 10.7829 30.685 11.1034 30.9007C11.424 31.1164 11.6734 31.4223 11.8201 31.7798C11.9668 32.1372 12.0043 32.5301 11.9278 32.9088C11.8513 33.2875 11.6642 33.6351 11.3902 33.9075C11.1162 34.1799 10.7676 34.365 10.3884 34.4393C10.0093 34.5136 9.61659 34.4738 9.26002 34.325C8.90345 34.1762 8.59899 33.9251 8.38514 33.6032C8.1713 33.2814 8.05766 32.9035 8.0586 32.5171C8.06431 31.9999 8.27307 31.5057 8.63984 31.1411C9.00662 30.7765 9.50203 30.5706 10.0192 30.5679Z" fill="#010101"/>
<path d="M23.5511 32.7492C23.5543 32.5355 23.6424 32.3318 23.7958 32.183C23.9492 32.0342 24.1555 31.9524 24.3692 31.9557C24.583 31.9589 24.7866 32.047 24.9354 32.2004C25.0842 32.3538 25.166 32.5601 25.1628 32.7738C25.1576 32.989 25.0689 33.1937 24.9155 33.3446C24.7621 33.4955 24.556 33.5809 24.3408 33.5825C24.1256 33.5766 23.9216 33.4855 23.7735 33.3292C23.6255 33.173 23.5454 32.9644 23.5511 32.7492Z" fill="#FCFCFC"/>
<path d="M9.25881 31.3354C9.36443 31.3356 9.46897 31.3565 9.56647 31.3971C9.66397 31.4377 9.7525 31.4971 9.827 31.572C9.90151 31.6468 9.96052 31.7357 10.0006 31.8333C10.0408 31.931 10.0612 32.0357 10.0609 32.1413C10.0636 32.247 10.0449 32.3521 10.006 32.4504C9.96713 32.5487 9.90881 32.6382 9.83455 32.7134C9.76029 32.7886 9.67162 32.8481 9.57383 32.8883C9.47605 32.9284 9.37114 32.9485 9.26543 32.9472C9.05226 32.9453 8.84807 32.8611 8.69558 32.7121C8.54308 32.5632 8.45411 32.361 8.44727 32.1479C8.45435 31.9349 8.54209 31.7324 8.69275 31.5816C8.84341 31.4308 9.04575 31.3428 9.25881 31.3354Z" fill="#FCFCFC"/>
</g>
<defs>
<clipPath id="clip0_1000_381">
<rect width="36.9138" height="55" fill="white" transform="translate(0.542969 0.625)"/>
</clipPath>
</defs>
</svg>
